<svg xmlns="http://www.w3.org/2000/svg" width="871" height="142" viewBox="0 0 871 142" fill="none" role="img" aria-label="file-selector">
  <title>file-selector</title>
  <g transform="translate(12 12) scale(1.2292)">
  <rect x="9.5" y="9.5" width="77" height="77" rx="22" fill="none" stroke="#5C4741" stroke-width="5" stroke-linecap="round" stroke-dasharray="13 12"/>
  <g stroke="#F0574A" stroke-width="8" stroke-linecap="round" stroke-linejoin="round" fill="none">
    <path d="M48 29 V62"/>
    <path d="M31 47 L48 65 L65 47"/>
  </g>
  </g>
  <path transform="translate(158.7 117.0)" d="M30.76 0L12.54 0L12.54-50.95L1.32-50.95L1.32-65.08L12.67-65.08L12.67-71.41Q12.67-80.12 15.58-84.94Q18.48-89.76 23.30-91.54Q28.12-93.32 33.66-93.32L33.66-93.32Q37.88-93.32 40.99-92.60Q44.09-91.87 46.86-90.55L46.86-90.55L41.05-76.69Q39.86-77.35 38.48-77.81Q37.09-78.28 35.64-78.28L35.64-78.28Q32.87-78.28 31.81-76.36Q30.76-74.45 30.76-71.28L30.76-71.28L30.76-65.08L44.09-65.08L44.09-50.95L30.76-50.95L30.76 0ZM70.22 0L52.14 0L52.14-65.08L70.22-65.08L70.22 0ZM70.75-74.58L51.88-74.58L51.88-92.00L70.75-92.00L70.75-74.58ZM99.26 1.32L99.26 1.32Q92.40 1.32 87.78-2.84Q83.16-7.00 83.16-16.10L83.16-16.10L83.16-92.00L101.24-92.00L101.24-19.67Q101.24-17.29 102.43-16.30Q103.62-15.31 105.47-15.31L105.47-15.31Q106.66-15.31 107.71-15.58Q108.77-15.84 109.96-16.10L109.96-16.10L109.96-0.66Q107.05 0.40 104.28 0.86Q101.51 1.32 99.26 1.32ZM148.37 1.32L148.37 1.32Q139.66 1.32 133.39-1.45Q127.12-4.22 123.22-8.98Q119.33-13.73 117.55-19.73Q115.76-25.74 115.76-32.21L115.76-32.21Q115.76-38.41 117.55-44.48Q119.33-50.56 123.02-55.51Q126.72-60.46 132.79-63.43Q138.86-66.40 147.31-66.40L147.31-66.40Q154.84-66.40 160.58-63.82Q166.32-61.25 170.15-56.69Q173.98-52.14 175.89-45.94Q177.80-39.73 177.80-32.60L177.80-32.60Q177.80-31.42 177.74-29.83Q177.67-28.25 177.41-26.27L177.41-26.27L133.85-26.27Q134.64-20.20 139.00-17.23Q143.35-14.26 149.42-14.26L149.42-14.26Q154.31-14.26 159.19-15.97Q164.08-17.69 167.77-20.86L167.77-20.86L176.09-8.18Q171.20-4.75 167.05-2.64Q162.89-0.53 158.47 0.40Q154.04 1.32 148.37 1.32ZM166.06-39.73L159.98-35.38Q160.25-36.43 160.45-37.49Q160.64-38.54 160.64-39.47L160.64-39.47Q160.64-42.11 159.65-44.29Q158.66-46.46 156.95-48.05Q155.23-49.63 152.86-50.49Q150.48-51.35 147.58-51.35L147.58-51.35Q142.96-51.35 139.99-49.57Q137.02-47.78 135.50-45.14Q133.98-42.50 133.58-39.73L133.58-39.73L166.06-39.73ZM218.72-31.94L185.99-31.94L185.99-45.41L218.72-45.41L218.72-31.94ZM252.38 1.32L252.38 1.32Q244.99 1.32 239.45-0.79Q233.90-2.90 230.21-6.01Q226.51-9.11 224.14-11.75L224.14-11.75L236.54-22.57Q238.79-19.27 242.68-16.24Q246.58-13.20 252.52-13.20L252.52-13.20Q256.87-13.20 259.31-14.92Q261.76-16.63 261.76-18.88L261.76-18.88Q261.76-20.99 260.17-22.24Q258.59-23.50 255.95-24.42Q253.31-25.34 250.01-26.27L250.01-26.27Q246.31-27.19 242.35-28.58Q238.39-29.96 234.96-32.21Q231.53-34.45 229.42-37.95Q227.30-41.45 227.30-46.73L227.30-46.73Q227.30-55.57 234.23-60.98Q241.16-66.40 252.38-66.40L252.38-66.40Q260.30-66.40 266.77-63.36Q273.24-60.32 277.07-54.52L277.07-54.52L265.85-45.67Q263.47-49.10 259.78-51.02Q256.08-52.93 251.99-52.93L251.99-52.93Q248.56-52.93 246.38-51.68Q244.20-50.42 244.20-48.44L244.20-48.44Q244.20-46.99 245.26-46.00Q246.31-45.01 248.69-44.22Q251.06-43.43 255.16-42.37L255.16-42.37Q258.98-41.45 263.21-40.13Q267.43-38.81 271.19-36.50Q274.96-34.19 277.27-30.43Q279.58-26.66 279.58-20.99L279.58-20.99Q279.58-14.39 276.21-9.31Q272.84-4.22 266.71-1.45Q260.57 1.32 252.38 1.32ZM319.44 1.32L319.44 1.32Q310.73 1.32 304.46-1.45Q298.19-4.22 294.29-8.98Q290.40-13.73 288.62-19.73Q286.84-25.74 286.84-32.21L286.84-32.21Q286.84-38.41 288.62-44.48Q290.40-50.56 294.10-55.51Q297.79-60.46 303.86-63.43Q309.94-66.40 318.38-66.40L318.38-66.40Q325.91-66.40 331.65-63.82Q337.39-61.25 341.22-56.69Q345.05-52.14 346.96-45.94Q348.88-39.73 348.88-32.60L348.88-32.60Q348.88-31.42 348.81-29.83Q348.74-28.25 348.48-26.27L348.48-26.27L304.92-26.27Q305.71-20.20 310.07-17.23Q314.42-14.26 320.50-14.26L320.50-14.26Q325.38-14.26 330.26-15.97Q335.15-17.69 338.84-20.86L338.84-20.86L347.16-8.18Q342.28-4.75 338.12-2.64Q333.96-0.53 329.54 0.40Q325.12 1.32 319.44 1.32ZM337.13-39.73L331.06-35.38Q331.32-36.43 331.52-37.49Q331.72-38.54 331.72-39.47L331.72-39.47Q331.72-42.11 330.73-44.29Q329.74-46.46 328.02-48.05Q326.30-49.63 323.93-50.49Q321.55-51.35 318.65-51.35L318.65-51.35Q314.03-51.35 311.06-49.57Q308.09-47.78 306.57-45.14Q305.05-42.50 304.66-39.73L304.66-39.73L337.13-39.73ZM375.14 1.32L375.14 1.32Q368.28 1.32 363.66-2.84Q359.04-7.00 359.04-16.10L359.04-16.10L359.04-92.00L377.12-92.00L377.12-19.67Q377.12-17.29 378.31-16.30Q379.50-15.31 381.35-15.31L381.35-15.31Q382.54-15.31 383.59-15.58Q384.65-15.84 385.84-16.10L385.84-16.10L385.84-0.66Q382.93 0.40 380.16 0.86Q377.39 1.32 375.14 1.32ZM424.25 1.32L424.25 1.32Q415.54 1.32 409.27-1.45Q403.00-4.22 399.10-8.98Q395.21-13.73 393.43-19.73Q391.64-25.74 391.64-32.21L391.64-32.21Q391.64-38.41 393.43-44.48Q395.21-50.56 398.90-55.51Q402.60-60.46 408.67-63.43Q414.74-66.40 423.19-66.40L423.19-66.40Q430.72-66.40 436.46-63.82Q442.20-61.25 446.03-56.69Q449.86-52.14 451.77-45.94Q453.68-39.73 453.68-32.60L453.68-32.60Q453.68-31.42 453.62-29.83Q453.55-28.25 453.29-26.27L453.29-26.27L409.73-26.27Q410.52-20.20 414.88-17.23Q419.23-14.26 425.30-14.26L425.30-14.26Q430.19-14.26 435.07-15.97Q439.96-17.69 443.65-20.86L443.65-20.86L451.97-8.18Q447.08-4.75 442.93-2.64Q438.77-0.53 434.35 0.40Q429.92 1.32 424.25 1.32ZM441.94-39.73L435.86-35.38Q436.13-36.43 436.33-37.49Q436.52-38.54 436.52-39.47L436.52-39.47Q436.52-42.11 435.53-44.29Q434.54-46.46 432.83-48.05Q431.11-49.63 428.74-50.49Q426.36-51.35 423.46-51.35L423.46-51.35Q418.84-51.35 415.87-49.57Q412.90-47.78 411.38-45.14Q409.86-42.50 409.46-39.73L409.46-39.73L441.94-39.73ZM493.42 1.32L493.42 1.32Q485.23 1.32 479.23-1.52Q473.22-4.36 469.19-9.17Q465.17-13.99 463.19-20.06Q461.21-26.14 461.21-32.60L461.21-32.60Q461.21-39.07 463.19-45.14Q465.17-51.22 469.19-55.97Q473.22-60.72 479.23-63.56Q485.23-66.40 493.42-66.40L493.42-66.40Q503.45-66.40 510.84-61.64Q518.23-56.89 521.93-46.99L521.93-46.99L506.09-40.66Q504.64-45.14 501.67-47.92Q498.70-50.69 493.42-50.69L493.42-50.69Q488.40-50.69 485.30-48.05Q482.20-45.41 480.74-41.25Q479.29-37.09 479.29-32.60L479.29-32.60Q479.29-28.12 480.74-23.89Q482.20-19.67 485.30-17.03Q488.40-14.39 493.42-14.39L493.42-14.39Q498.70-14.39 501.67-17.16Q504.64-19.93 506.09-24.42L506.09-24.42L521.93-18.08Q518.23-8.32 510.84-3.50Q503.45 1.32 493.42 1.32ZM557.17 1.32L557.17 1.32Q551.76 1.32 547.01-0.73Q542.26-2.77 539.35-7.39Q536.45-12.01 536.45-19.93L536.45-19.93L536.45-79.46L554.80-89.23L554.80-25.08Q554.80-19.27 556.31-16.37Q557.83-13.46 562.19-13.46L562.19-13.46Q563.51-13.46 565.16-13.73Q566.81-13.99 568.66-14.52L568.66-14.52L568.66-0.66Q565.88 0.40 563.05 0.86Q560.21 1.32 557.17 1.32ZM568.66-50.95L525.10-50.95L525.10-65.08L568.66-65.08L568.66-50.95ZM608.92 1.32L608.92 1.32Q599.41 1.32 591.89-3.04Q584.36-7.39 580.07-15.11Q575.78-22.84 575.78-32.60L575.78-32.60Q575.78-42.50 580.07-50.16Q584.36-57.82 591.82-62.11Q599.28-66.40 608.92-66.40L608.92-66.40Q618.42-66.40 625.88-62.11Q633.34-57.82 637.63-50.16Q641.92-42.50 641.92-32.60L641.92-32.60Q641.92-22.84 637.63-15.11Q633.34-7.39 625.88-3.04Q618.42 1.32 608.92 1.32ZM608.92-14.52L608.92-14.52Q613.67-14.52 616.97-16.63Q620.27-18.74 621.98-22.84Q623.70-26.93 623.70-32.60L623.70-32.60Q623.70-38.41 621.98-42.37Q620.27-46.33 616.97-48.44Q613.67-50.56 608.92-50.56L608.92-50.56Q604.16-50.56 600.80-48.44Q597.43-46.33 595.65-42.37Q593.87-38.41 593.87-32.60L593.87-32.60Q593.87-26.93 595.65-22.84Q597.43-18.74 600.80-16.63Q604.16-14.52 608.92-14.52ZM670.30 0L652.21 0L652.21-65.08L670.43-65.08L670.43-47.39L667.92-47.26Q668.32-52.80 671.15-57.16Q673.99-61.51 678.35-63.95Q682.70-66.40 687.32-66.40L687.32-66.40Q690.62-66.40 693.66-65.47Q696.70-64.55 700.13-62.44L700.13-62.44L691.42-46.07Q689.96-46.99 687.65-47.72Q685.34-48.44 682.97-48.44L682.97-48.44Q680.59-48.44 678.35-47.52Q676.10-46.60 674.39-44.81Q672.67-43.03 671.62-40.13L671.62-40.13Q670.96-38.28 670.63-35.44Q670.30-32.60 670.30-27.06L670.30-27.06L670.30 0Z" fill="#F6EEEB"/>
</svg>
